<svg width="51" height="51" viewBox="0 0 51 51" fill="none" xmlns="http://www.w3.org/2000/svg">
<path d="M44.625 21.25C44.625 36.125 25.5 48.875 25.5 48.875C25.5 48.875 6.375 36.125 6.375 21.25C6.375 16.1777 8.38995 11.3132 11.9766 7.72658C15.5632 4.13995 20.4277 2.125 25.5 2.125C30.5723 2.125 35.4368 4.13995 39.0234 7.72658C42.61 11.3132 44.625 16.1777 44.625 21.25Z" fill="#ffcc00"/>
<path d="M25.5 27.625C29.0208 27.625 31.875 24.7708 31.875 21.25C31.875 17.7292 29.0208 14.875 25.5 14.875C21.9792 14.875 19.125 17.7292 19.125 21.25C19.125 24.7708 21.9792 27.625 25.5 27.625Z" fill="#ffcc00"/>
<circle cx="25.4998" cy="21.1775" r="7.34746" fill="white"/>
</svg>
