<?xml version="1.0" encoding="UTF-8" standalone="no"?>
<!DOCTYPE svg PUBLIC "-//W3C//DTD SVG 1.1//EN" "http://www.w3.org/Graphics/SVG/1.1/DTD/svg11.dtd">
<svg xmlns="http://www.w3.org/2000/svg" version="1.1" viewBox="0.00 0.00 237.00 761.00">
<path fill="#c66e7b" fill-opacity="0.267" d="
  M 237.00 1.96
  L 237.00 2.65
  Q 222.61 5.37 208.91 10.68
  A 4.08 4.01 31.4 0 1 207.79 10.94
  Q 185.12 12.77 164.50 21.02
  C 154.46 25.03 145.69 28.60 136.36 33.68
  Q 131.32 36.43 124.17 40.17
  Q 115.41 44.76 101.43 55.79
  A 6.11 6.11 0.0 0 1 100.65 56.31
  C 60.41 78.50 33.06 116.14 24.44 161.19
  Q 21.90 174.45 21.19 190.01
  Q 19.27 232.09 38.29 269.21
  Q 50.13 292.33 70.51 313.06
  A 0.83 0.81 -57.4 0 1 70.69 313.93
  Q 56.31 351.33 58.83 391.78
  C 60.49 418.41 67.19 445.63 75.22 470.55
  Q 86.59 505.84 102.30 543.01
  Q 116.27 576.04 139.64 603.00
  A 1.00 0.98 33.2 0 1 139.84 603.92
  Q 131.90 629.98 131.31 653.25
  Q 130.48 685.79 142.56 716.73
  Q 148.50 731.97 154.15 743.62
  Q 157.77 751.07 163.75 761.00
  Q 163.22 760.99 162.70 761.00
  Q 156.17 751.08 150.38 738.14
  Q 142.35 720.20 139.34 711.42
  Q 123.66 665.74 134.63 619.07
  Q 136.21 612.36 138.50 604.27
  A 1.04 1.03 -57.5 0 0 138.30 603.34
  Q 130.47 593.96 125.90 587.62
  Q 115.69 573.46 107.38 556.89
  Q 102.51 547.17 93.23 523.90
  Q 78.22 486.27 68.47 451.88
  Q 60.61 424.14 58.13 397.81
  Q 54.09 355.02 69.07 314.85
  A 2.11 2.10 32.9 0 0 68.59 312.63
  C 36.76 280.62 18.49 238.34 19.95 192.77
  C 20.57 173.34 23.35 154.84 29.85 137.08
  Q 44.75 96.28 78.92 69.18
  Q 87.67 62.24 99.41 55.81
  A 5.12 4.97 -77.8 0 0 100.22 55.27
  Q 113.24 44.68 123.70 39.20
  Q 126.25 37.86 140.98 30.01
  Q 147.08 26.75 165.07 19.62
  Q 185.53 11.52 207.53 9.84
  A 3.51 3.47 -57.4 0 0 208.50 9.62
  Q 221.96 4.44 236.00 1.72
  Q 236.47 1.63 237.00 1.96
  Z"
/>
<path fill="#df6984" fill-opacity="0.510" d="
  M 237.00 39.24
  L 237.00 40.36
  Q 226.75 43.03 216.95 47.21
  A 2.45 2.42 -57.2 0 1 216.01 47.42
  Q 196.86 48.03 179.14 54.91
  Q 175.27 56.41 163.43 61.47
  C 157.16 64.15 152.61 67.32 146.80 69.98
  C 138.46 73.80 129.65 79.92 123.13 85.83
  Q 122.36 86.54 117.83 89.01
  Q 96.78 100.49 82.08 119.88
  Q 63.45 144.47 59.55 175.28
  Q 58.49 183.65 58.11 190.52
  Q 56.22 224.81 72.53 254.79
  Q 82.23 272.64 96.80 287.24
  Q 100.89 291.34 109.12 299.27
  Q 112.44 302.46 114.90 305.92
  A 0.94 0.92 -47.9 0 1 114.94 306.92
  Q 105.72 322.39 100.89 339.91
  Q 96.75 354.92 95.54 368.01
  C 94.79 376.18 95.05 386.88 96.15 396.66
  Q 99.28 424.54 109.79 457.20
  Q 123.17 498.76 138.67 533.63
  Q 154.26 568.71 182.74 594.35
  A 0.92 0.92 0.0 0 1 182.95 595.43
  Q 172.69 616.45 169.46 639.80
  C 166.68 659.96 168.54 678.94 175.00 698.01
  C 178.10 707.14 183.55 719.49 187.43 727.41
  C 193.45 739.72 200.53 750.63 209.62 760.40
  A 0.25 0.25 0.0 0 1 209.61 760.76
  L 209.39 760.96
  A 0.26 0.25 45.8 0 1 209.03 760.95
  Q 194.33 745.13 185.74 727.08
  Q 182.47 720.22 177.02 707.00
  Q 162.52 671.79 169.01 634.76
  Q 172.60 614.32 181.42 595.71
  A 0.74 0.74 0.0 0 0 181.27 594.86
  Q 172.61 586.39 168.04 581.21
  Q 155.82 567.35 146.38 551.54
  Q 138.44 538.25 130.57 518.35
  C 118.14 486.93 106.76 455.86 99.39 423.64
  Q 91.76 390.25 95.85 358.33
  Q 99.21 332.10 113.50 306.77
  A 0.70 0.69 40.3 0 0 113.43 305.99
  C 107.32 298.63 101.39 293.50 94.40 286.35
  Q 82.87 274.57 74.26 260.31
  Q 55.54 229.31 56.79 192.99
  Q 56.95 192.56 56.91 192.04
  Q 57.03 186.53 57.94 178.25
  Q 61.71 143.61 82.61 116.85
  Q 96.73 98.77 120.26 86.27
  A 12.50 12.45 10.8 0 0 122.39 84.83
  Q 132.51 76.35 138.07 73.34
  C 150.80 66.42 157.17 62.63 167.61 58.30
  Q 179.35 53.43 182.20 52.44
  Q 198.64 46.73 216.34 46.15
  A 2.69 2.63 -57.5 0 0 217.32 45.92
  Q 226.78 41.58 237.00 39.24
  Z"
/>
<path fill="#f57193" d="
  M 237.00 73.23
  L 237.00 73.81
  L 224.66 79.37
  A 2.50 2.45 33.8 0 1 223.59 79.57
  Q 205.55 78.69 189.40 85.44
  Q 180.33 89.23 176.70 90.70
  C 171.72 92.73 167.12 95.90 162.05 98.33
  Q 150.41 103.90 141.09 112.98
  A 4.60 4.48 -78.9 0 1 139.80 113.87
  Q 100.08 132.61 91.81 176.12
  Q 91.13 179.74 90.50 188.62
  Q 89.92 196.78 90.12 201.18
  C 91.13 223.55 100.30 243.28 115.32 259.94
  C 121.26 266.54 130.45 274.62 136.21 281.17
  Q 146.35 292.71 154.08 306.68
  A 0.34 0.32 50.7 0 1 154.05 307.05
  Q 125.12 341.83 127.74 387.76
  C 128.72 404.83 133.12 423.63 138.48 441.23
  Q 146.97 469.09 160.78 503.88
  Q 170.20 527.59 179.41 541.47
  Q 193.99 563.45 215.26 579.73
  Q 216.12 580.39 224.42 586.15
  A 0.55 0.55 0.0 0 1 224.57 586.90
  C 222.44 590.13 221.03 593.93 218.75 597.39
  Q 208.03 613.61 203.15 634.18
  Q 195.87 664.84 207.74 693.94
  Q 213.16 707.23 217.85 716.43
  Q 224.97 730.42 236.92 741.93
  A 0.45 0.45 0.0 0 1 236.99 742.51
  L 236.90 742.65
  A 0.44 0.44 0.0 0 1 236.23 742.72
  Q 222.96 729.91 215.01 713.01
  C 205.90 693.65 198.91 676.04 199.42 656.02
  Q 200.20 625.16 217.57 597.27
  Q 220.11 593.19 220.64 592.07
  Q 222.00 589.19 223.21 587.22
  A 0.63 0.62 32.8 0 0 223.02 586.36
  Q 195.98 568.62 177.98 541.14
  Q 168.93 527.31 158.55 500.93
  C 145.48 467.75 134.22 436.86 128.51 403.27
  C 122.59 368.47 130.05 334.11 152.81 307.08
  A 0.51 0.50 -40.3 0 0 152.86 306.51
  Q 146.45 295.06 137.99 284.80
  C 131.03 276.36 121.14 267.90 114.02 259.99
  C 97.83 242.02 88.69 219.88 89.16 195.76
  C 89.43 181.57 91.58 166.97 97.62 154.03
  Q 110.53 126.41 138.91 113.24
  A 5.96 5.61 -78.0 0 0 140.50 112.14
  Q 149.84 103.11 161.09 97.68
  C 166.59 95.03 171.27 91.93 177.35 89.37
  Q 188.03 84.88 190.77 83.81
  Q 205.77 77.94 223.08 78.61
  A 3.47 3.46 -58.2 0 0 224.83 78.20
  Q 229.41 75.69 236.25 73.10
  Q 236.62 72.96 237.00 73.23
  Z"
/>
<path fill="#f57193" d="
  M 237.00 104.39
  L 237.00 105.53
  L 232.57 108.64
  A 2.09 2.03 22.7 0 1 231.68 108.99
  Q 229.38 109.33 228.51 109.18
  Q 211.02 106.20 195.65 114.33
  A 7.99 7.74 21.5 0 1 194.38 114.86
  Q 186.55 117.32 180.09 121.66
  A 11.65 11.56 -72.8 0 1 177.93 122.81
  Q 165.91 127.69 157.46 137.77
  A 2.33 2.29 10.0 0 1 156.44 138.47
  Q 129.51 148.00 121.73 174.94
  C 119.83 181.55 119.16 189.76 119.00 196.75
  C 118.54 217.04 129.18 234.39 143.91 247.86
  Q 170.89 272.53 186.37 306.29
  A 1.23 1.19 38.1 0 1 186.46 306.95
  L 185.03 315.90
  A 1.49 1.44 -19.3 0 1 184.63 316.70
  Q 179.37 322.13 177.83 323.84
  C 160.56 342.89 153.89 367.36 157.23 393.01
  Q 159.48 410.30 164.88 428.61
  Q 174.06 459.68 186.87 491.03
  C 189.89 498.44 192.80 505.99 196.50 513.26
  Q 210.94 541.61 237.00 559.77
  L 237.00 560.72
  Q 236.87 560.87 236.70 560.90
  Q 236.55 560.92 236.36 560.79
  Q 210.87 543.02 196.35 515.64
  C 191.66 506.79 187.79 496.32 184.15 487.32
  Q 171.67 456.50 162.90 425.87
  C 157.42 406.73 153.46 386.30 156.16 367.20
  Q 159.92 340.57 179.26 320.54
  Q 182.06 317.64 183.54 316.04
  A 1.63 1.58 -19.3 0 0 183.96 315.20
  L 185.19 307.43
  A 2.54 2.49 -53.4 0 0 184.99 305.98
  Q 174.45 283.76 159.47 265.71
  C 152.99 257.90 145.33 251.10 138.56 244.20
  C 125.53 230.93 117.44 214.84 117.84 196.52
  C 117.98 189.92 118.65 181.86 120.32 175.62
  Q 127.75 147.87 155.11 137.68
  A 4.37 4.23 12.2 0 0 156.59 136.76
  Q 157.03 136.34 159.13 134.14
  Q 167.08 125.83 177.26 121.83
  A 11.67 11.11 15.8 0 0 179.39 120.71
  Q 186.11 116.18 193.69 113.90
  A 4.06 3.69 -64.5 0 0 194.52 113.56
  Q 210.41 104.93 229.00 108.03
  A 4.61 4.59 33.6 0 0 232.21 107.39
  L 237.00 104.39
  Z"
/>
<path fill="#f57193" d="
  M 237.00 133.14
  L 237.00 134.27
  L 227.96 134.94
  A 3.45 3.38 -39.2 0 1 226.86 134.84
  Q 215.02 131.68 205.21 138.18
  A 3.20 3.18 -67.0 0 1 204.01 138.67
  Q 197.23 140.02 191.91 144.55
  A 2.75 2.65 13.3 0 1 191.10 145.03
  Q 186.35 146.79 185.48 147.24
  Q 178.29 150.94 174.41 157.70
  Q 173.49 159.31 172.75 159.96
  Q 171.01 161.51 170.47 161.57
  C 156.24 163.11 146.95 172.62 145.27 186.50
  Q 144.56 192.38 144.42 197.02
  C 144.08 208.25 150.13 218.38 158.09 226.16
  C 164.85 232.76 171.21 238.61 177.44 245.81
  Q 196.86 268.27 209.68 296.06
  Q 211.69 300.40 212.78 305.78
  A 3.44 3.40 -41.3 0 1 212.65 307.61
  Q 211.02 312.18 210.49 318.50
  C 210.13 322.89 208.74 325.59 207.15 328.92
  C 205.42 332.54 200.56 336.71 197.51 339.99
  C 185.76 352.63 180.62 368.21 182.08 385.78
  C 183.28 400.11 187.20 415.33 191.21 428.06
  Q 201.73 461.40 215.74 494.54
  Q 222.33 510.15 233.64 523.11
  Q 235.58 525.33 237.00 526.52
  L 237.00 527.88
  Q 236.90 527.94 236.77 527.99
  A 0.36 0.35 56.7 0 1 236.38 527.90
  Q 222.78 513.97 215.84 497.91
  Q 199.28 459.58 188.29 422.74
  Q 184.49 409.99 182.33 397.97
  Q 180.53 387.97 180.59 379.51
  Q 180.74 357.43 194.56 341.30
  Q 196.26 339.32 204.07 331.31
  Q 205.62 329.72 208.69 322.08
  A 3.68 3.67 -33.0 0 0 208.94 320.92
  Q 209.23 314.33 211.28 307.42
  A 3.51 3.40 -42.4 0 0 211.37 305.93
  Q 210.58 301.11 208.47 296.54
  Q 196.12 269.76 177.41 247.80
  C 171.02 240.30 164.11 233.88 157.29 227.21
  C 148.32 218.44 142.15 207.43 143.16 194.68
  C 143.42 191.44 143.79 185.60 144.86 181.74
  Q 149.98 163.28 169.67 160.21
  A 4.01 4.00 10.1 0 0 172.56 158.20
  Q 178.44 147.51 190.00 144.09
  A 2.87 2.84 -72.9 0 0 191.06 143.52
  Q 196.48 139.00 203.60 137.34
  A 4.69 4.54 21.3 0 0 205.03 136.74
  Q 215.34 130.24 227.56 133.67
  A 1.92 1.88 45.6 0 0 228.50 133.69
  Q 232.67 132.69 237.00 133.14
  Z"
/>
<path fill="#f57193" d="
  M 237.00 156.70
  L 237.00 157.90
  Q 232.45 156.44 228.82 160.24
  A 0.72 0.71 37.1 0 1 227.94 160.36
  C 225.28 158.83 222.02 156.79 218.85 156.96
  A 1.05 1.04 -74.0 0 0 218.06 157.40
  Q 216.63 159.45 216.67 162.23
  A 0.43 0.42 -78.3 0 1 216.07 162.63
  C 213.67 161.56 209.43 160.05 207.46 161.79
  Q 206.65 162.50 205.14 164.55
  A 5.76 5.75 -74.4 0 1 201.05 166.86
  C 198.38 167.10 196.32 167.13 194.59 168.84
  Q 194.06 169.36 193.77 171.76
  Q 193.36 175.17 190.01 175.75
  A 1.53 1.51 12.3 0 0 189.03 176.37
  Q 188.06 177.77 188.09 179.67
  A 2.06 1.78 -81.8 0 1 185.68 181.76
  Q 184.02 181.14 181.96 181.96
  Q 176.53 184.13 171.16 184.80
  A 1.95 1.91 -66.1 0 0 170.25 185.16
  C 167.55 187.11 167.91 191.91 167.61 196.52
  C 167.21 202.37 171.35 207.00 175.37 210.88
  C 185.21 220.37 192.75 227.75 200.23 237.09
  Q 219.21 260.80 231.61 288.62
  Q 234.54 295.20 235.68 303.76
  C 236.28 308.20 235.31 312.59 234.08 316.55
  Q 233.61 318.07 233.27 322.70
  Q 233.07 325.46 232.13 328.71
  Q 228.50 341.18 219.36 350.59
  Q 212.40 357.75 211.10 359.63
  Q 203.69 370.37 205.12 384.27
  Q 206.45 397.21 209.39 407.81
  Q 219.95 445.87 237.00 485.25
  L 237.00 487.49
  L 236.87 487.77
  A 0.24 0.24 0.0 0 1 236.43 487.76
  Q 223.13 456.27 213.36 426.14
  Q 209.55 414.37 206.62 401.88
  Q 203.69 389.43 203.60 380.01
  Q 203.43 364.26 214.79 353.28
  C 217.12 351.03 221.77 346.37 224.03 342.90
  Q 229.28 334.84 231.79 324.79
  A 5.21 5.19 51.6 0 0 231.94 323.47
  Q 231.84 318.29 233.73 312.81
  A 4.67 4.44 -33.2 0 0 233.96 311.83
  Q 234.82 304.63 233.69 299.76
  C 231.20 289.03 226.29 280.00 220.20 269.11
  Q 207.20 245.86 189.27 226.56
  C 184.06 220.95 176.64 214.34 171.34 208.58
  Q 168.21 205.19 166.37 200.43
  A 4.70 4.49 -55.9 0 1 166.06 198.61
  Q 166.34 190.49 167.28 187.16
  Q 168.42 183.10 173.72 182.99
  A 6.71 6.57 -54.5 0 0 175.75 182.63
  L 183.47 180.02
  A 1.11 1.03 38.8 0 1 184.01 179.98
  L 186.01 180.30
  A 0.78 0.77 2.8 0 0 186.90 179.50
  Q 186.67 174.63 191.01 173.94
  A 1.27 1.26 89.1 0 0 192.06 172.85
  C 192.87 166.44 195.36 166.12 201.40 165.33
  A 3.94 3.94 0.0 0 0 203.97 163.87
  Q 204.65 162.99 206.10 161.12
  C 207.64 159.13 212.59 159.62 214.68 160.70
  A 0.61 0.61 0.0 0 0 215.56 160.24
  Q 216.05 156.44 218.80 155.50
  A 2.01 1.96 -47.6 0 1 219.87 155.44
  Q 224.02 156.37 227.64 158.74
  A 0.68 0.68 0.0 0 0 228.45 158.70
  C 230.73 156.82 234.06 154.95 237.00 156.70
  Z"
/>
<path fill="#c66e7b" fill-opacity="0.267" d="
  M 56.91 192.04
  Q 56.95 192.56 56.79 192.99
  L 56.91 192.04
  Z"
/>
<path fill="#f57193" d="
  M 237.00 621.97
  L 237.00 624.19
  C 230.56 637.89 227.64 652.46 230.19 667.47
  Q 232.09 678.65 237.00 688.93
  L 237.00 690.79
  Q 235.26 688.31 233.22 683.01
  Q 222.97 656.41 233.58 629.28
  Q 235.49 624.42 237.00 621.97
  Z"
/>
</svg>
