<?xml version="1.0" encoding="UTF-8" standalone="no"?>
<!DOCTYPE svg PUBLIC "-//W3C//DTD SVG 1.1//EN" "http://www.w3.org/Graphics/SVG/1.1/DTD/svg11.dtd">
<svg xmlns="http://www.w3.org/2000/svg" version="1.1" viewBox="0.00 0.00 415.00 761.00">
<g stroke-width="0.00" fill="none" stroke-linecap="butt">
<path stroke="#72c0ef" stroke-opacity="0.769" vector-effect="non-scaling-stroke" d="
  M 316.11 79.06
  Q 316.06 78.75 315.72 78.41"
/>
<path stroke="#72c0ef" stroke-opacity="0.769" vector-effect="non-scaling-stroke" d="
  M 256.00 131.68
  Q 255.80 131.74 255.34 131.42"
/>
<path stroke="#72c0ef" stroke-opacity="0.769" vector-effect="non-scaling-stroke" d="
  M 241.26 170.88
  Q 240.98 170.68 240.54 170.65"
/>
<path stroke="#72c0ef" stroke-opacity="0.769" vector-effect="non-scaling-stroke" d="
  M 238.85 204.45
  L 238.99 205.71"
/>
<path stroke="#72c0ef" stroke-opacity="0.769" vector-effect="non-scaling-stroke" d="
  M 239.54 213.56
  L 238.85 213.70"
/>
<path stroke="#72c0ef" stroke-opacity="0.769" vector-effect="non-scaling-stroke" d="
  M 266.09 274.57
  Q 266.12 274.71 265.64 275.02"
/>
<path stroke="#72c0ef" stroke-opacity="0.769" vector-effect="non-scaling-stroke" d="
  M 276.42 395.46
  Q 276.01 395.47 275.73 395.29"
/>
<path stroke="#72c0ef" stroke-opacity="0.769" vector-effect="non-scaling-stroke" d="
  M 326.27 544.56
  Q 325.81 544.89 325.95 545.27"
/>
<path stroke="#72c0ef" stroke-opacity="0.769" vector-effect="non-scaling-stroke" d="
  M 360.50 587.02
  Q 360.57 587.18 360.48 587.44"
/>
<path stroke="#72c0ef" stroke-opacity="0.769" vector-effect="non-scaling-stroke" d="
  M 366.17 718.90
  Q 365.99 718.91 365.50 719.40"
/>
</g>
<path fill="#67a0c9" fill-opacity="0.278" d="
  M 296.47 565.66
  L 296.46 565.67
  A 0.28 0.28 0.0 0 1 296.08 565.58
  Q 287.77 552.42 281.63 537.88
  Q 267.87 505.25 257.18 473.32
  C 246.19 440.46 237.56 406.28 238.54 371.50
  Q 239.39 341.20 250.12 312.98
  A 1.00 1.00 0.0 0 0 249.92 311.96
  C 246.17 307.81 241.58 303.08 238.36 298.98
  Q 227.44 285.03 220.72 272.81
  Q 202.18 239.07 201.80 200.50
  C 201.43 163.50 211.32 127.13 234.60 97.94
  Q 251.75 76.45 275.19 62.43
  Q 280.66 59.16 284.61 56.16
  Q 296.05 47.48 302.60 44.09
  Q 306.47 42.09 319.21 35.21
  Q 325.85 31.63 344.31 24.34
  Q 363.73 16.68 385.41 14.98
  A 3.27 3.01 -56.1 0 0 386.29 14.77
  Q 399.90 9.42 414.36 6.85
  A 0.41 0.40 89.0 0 1 414.83 7.31
  L 414.78 7.62
  A 0.34 0.33 -89.8 0 1 414.51 7.90
  Q 400.18 10.46 386.53 15.80
  A 3.74 3.38 29.5 0 1 385.50 16.03
  Q 364.23 17.78 345.13 25.13
  C 337.50 28.07 325.94 32.83 316.10 38.07
  Q 304.34 44.32 299.72 46.98
  Q 293.81 50.39 284.93 57.25
  Q 281.19 60.14 276.14 63.14
  Q 257.72 74.05 244.69 87.97
  Q 210.48 124.49 204.44 174.42
  C 202.45 190.91 202.03 208.50 205.00 224.76
  Q 208.48 243.78 215.40 259.63
  Q 228.10 288.69 251.04 311.38
  A 1.29 1.29 0.0 0 1 251.34 312.76
  Q 239.64 343.51 239.38 376.75
  Q 239.26 391.92 242.44 411.67
  Q 246.26 435.45 254.96 462.80
  Q 267.32 501.69 283.31 538.97
  Q 288.59 551.30 296.57 565.27
  A 0.29 0.28 60.3 0 1 296.47 565.66
  Z"
/>
<path fill="#6db0dd" fill-opacity="0.533" d="
  M 415.00 43.61
  L 415.00 44.14
  L 414.73 44.45
  A 1.34 1.33 -74.7 0 1 414.02 44.86
  Q 404.18 46.97 395.00 51.42
  A 2.58 2.56 31.2 0 1 394.01 51.66
  Q 377.33 52.18 362.18 57.28
  C 357.12 58.98 351.94 61.50 346.79 63.48
  Q 343.13 64.89 340.69 66.10
  Q 328.26 72.27 316.11 79.06
  Q 316.06 78.75 315.72 78.41
  Q 320.65 75.09 325.99 72.46
  C 331.19 69.89 335.50 67.06 340.44 64.94
  Q 350.95 60.43 356.83 58.13
  Q 374.08 51.36 392.62 50.64
  A 8.86 8.80 -57.3 0 0 395.70 49.96
  Q 405.08 46.01 415.00 43.61
  Z"
/>
<path fill="#75c9f8" d="
  M 414.33 76.34
  A 0.29 0.29 0.0 0 1 414.71 76.48
  L 414.83 76.76
  A 0.29 0.28 -24.7 0 1 414.69 77.13
  L 401.98 83.07
  A 1.20 1.17 -55.2 0 1 401.46 83.17
  Q 382.63 82.54 368.16 88.69
  Q 359.97 92.18 356.15 93.67
  Q 352.19 95.21 347.60 97.86
  Q 344.08 99.90 339.23 102.34
  Q 328.92 107.53 319.97 116.13
  A 3.28 3.08 8.6 0 1 319.10 116.73
  Q 278.81 135.80 271.73 180.29
  Q 271.12 184.12 270.61 193.26
  Q 270.18 200.98 270.70 206.27
  C 272.87 228.80 283.41 248.48 299.33 264.17
  C 308.27 272.99 313.16 277.35 318.97 284.59
  Q 326.86 294.41 332.89 305.26
  A 0.78 0.77 51.3 0 1 332.80 306.13
  C 310.74 332.27 303.39 364.91 308.74 398.51
  C 313.85 430.68 325.74 463.20 338.23 495.21
  Q 348.03 520.32 357.01 534.10
  Q 370.75 555.20 390.27 570.73
  Q 392.54 572.55 401.63 578.90
  A 0.67 0.66 -57.4 0 1 401.82 579.78
  C 399.47 583.77 398.34 586.65 395.55 591.03
  C 383.01 610.77 376.45 635.13 378.72 658.48
  Q 380.05 672.19 387.97 690.49
  Q 394.11 704.71 397.22 710.02
  Q 404.74 722.85 414.96 732.46
  A 0.32 0.31 -60.0 0 1 415.04 732.77
  L 414.96 733.02
  A 0.44 0.43 -59.5 0 1 414.24 733.21
  Q 402.27 721.55 395.13 708.14
  Q 391.94 702.15 388.23 693.47
  Q 383.81 683.10 382.22 678.38
  C 372.08 648.32 378.64 615.21 395.73 588.93
  C 397.69 585.91 398.84 582.93 400.52 580.09
  A 0.63 0.63 0.0 0 0 400.34 579.25
  Q 361.89 553.15 344.40 512.33
  Q 326.73 471.12 315.54 432.97
  C 310.59 416.11 306.77 398.57 306.19 382.04
  Q 304.68 338.83 331.63 305.93
  A 0.76 0.75 -39.8 0 0 331.71 305.08
  Q 325.32 293.76 317.05 283.76
  C 310.55 275.90 300.55 267.21 294.03 259.98
  C 279.46 243.83 270.23 223.72 269.57 202.01
  C 268.42 164.62 283.31 132.40 318.18 116.17
  A 4.57 4.51 -79.1 0 0 319.42 115.32
  Q 328.50 106.61 339.14 101.31
  C 344.85 98.47 349.44 95.48 354.90 93.18
  Q 356.43 92.54 367.78 87.84
  Q 383.16 81.48 400.81 82.32
  A 0.58 0.55 32.6 0 0 401.02 82.28
  L 414.33 76.34
  Z"
/>
<path fill="#75c9f8" d="
  M 315.72 78.41
  Q 316.06 78.75 316.11 79.06
  L 301.31 90.08
  A 1.81 1.32 -14.3 0 1 301.10 90.21
  Q 272.66 104.73 256.00 131.68
  Q 255.80 131.74 255.34 131.42
  Q 272.18 104.29 300.59 89.70
  A 1.78 1.74 12.0 0 0 300.89 89.51
  L 315.72 78.41
  Z"
/>
<path fill="#75c9f8" d="
  M 415.00 106.97
  L 415.00 108.05
  L 409.71 111.66
  A 2.42 2.41 -66.0 0 1 408.75 112.03
  Q 406.59 112.32 405.37 112.12
  Q 388.23 109.33 373.17 117.46
  A 5.09 4.62 -64.5 0 1 372.24 117.84
  Q 364.91 120.05 358.57 124.33
  A 12.42 11.88 -71.8 0 1 356.38 125.50
  Q 344.57 130.30 336.30 140.15
  A 2.37 2.27 -78.9 0 1 335.30 140.85
  Q 309.02 150.20 301.40 176.41
  C 299.47 183.06 298.85 191.22 298.72 198.00
  C 298.45 211.00 302.87 223.26 310.51 233.93
  C 318.34 244.86 329.65 253.16 339.08 264.53
  Q 354.26 282.84 364.62 305.04
  A 0.91 0.90 38.0 0 1 364.69 305.58
  L 363.32 314.35
  A 2.16 2.12 72.8 0 1 362.69 315.57
  C 347.61 330.19 338.45 346.03 335.88 367.01
  C 334.07 381.82 336.58 397.16 340.35 412.70
  C 346.14 436.49 354.59 459.21 363.61 482.55
  Q 373.24 507.45 381.94 520.47
  Q 395.02 540.04 415.00 553.81
  L 415.00 554.72
  Q 414.87 554.87 414.70 554.90
  Q 414.57 554.92 414.39 554.79
  Q 387.84 536.58 373.30 507.95
  C 369.23 499.94 366.01 491.36 362.28 482.01
  Q 350.10 451.48 342.06 423.71
  C 337.26 407.11 333.26 388.43 334.33 371.54
  Q 336.02 344.98 352.90 324.25
  C 355.26 321.36 358.78 317.86 361.76 314.84
  A 1.78 1.71 72.7 0 0 362.23 313.90
  L 363.47 305.97
  A 1.67 1.66 36.7 0 0 363.33 305.03
  Q 351.90 280.66 334.74 261.28
  Q 331.39 257.50 320.25 246.76
  C 307.46 234.43 298.64 219.71 297.67 202.27
  Q 297.29 195.27 298.48 185.50
  C 301.14 163.89 313.58 147.38 334.42 139.97
  A 2.80 2.76 -79.2 0 0 335.62 139.14
  Q 344.08 129.23 356.27 124.26
  A 10.71 10.07 15.0 0 0 358.26 123.19
  Q 364.24 119.11 371.71 116.81
  A 6.91 6.87 -67.8 0 0 372.94 116.29
  Q 388.15 108.11 406.17 111.05
  A 4.71 4.70 -56.0 0 0 409.38 110.42
  L 415.00 106.97
  Z"
/>
<path fill="#6db0dd" fill-opacity="0.533" d="
  M 255.34 131.42
  Q 255.80 131.74 256.00 131.68
  Q 254.30 135.28 252.50 138.71
  Q 246.31 150.55 243.13 163.52
  Q 242.22 167.20 241.26 170.88
  Q 240.98 170.68 240.54 170.65
  Q 243.91 149.53 255.34 131.42
  Z"
/>
<path fill="#75c9f8" d="
  M 415.00 135.82
  L 415.00 136.98
  L 404.94 137.45
  A 1.58 1.38 48.7 0 1 404.56 137.40
  Q 392.93 134.01 383.13 140.51
  A 3.12 3.08 22.2 0 1 382.04 140.96
  Q 375.47 142.27 370.22 146.61
  A 6.04 5.92 16.4 0 1 368.10 147.74
  C 361.93 149.53 356.43 153.60 353.15 159.23
  Q 351.98 161.26 350.95 162.32
  A 3.97 3.91 -71.1 0 1 348.61 163.49
  Q 332.45 165.50 326.45 179.89
  C 324.30 185.01 324.02 190.41 323.65 196.49
  C 322.85 209.72 329.54 219.64 338.75 228.50
  C 344.60 234.13 351.98 241.22 358.06 248.51
  Q 376.24 270.31 388.07 296.68
  Q 389.95 300.86 390.30 305.04
  A 4.65 4.62 51.3 0 1 390.11 306.82
  Q 388.18 313.16 387.96 319.55
  A 3.81 3.67 58.0 0 1 387.68 320.87
  Q 384.83 327.95 383.40 329.65
  C 380.28 333.35 375.99 337.25 372.66 341.28
  Q 363.43 352.47 360.88 367.55
  Q 359.15 377.80 361.55 392.45
  Q 363.66 405.37 367.13 416.89
  Q 378.28 453.87 392.89 488.38
  Q 399.52 504.04 409.96 516.30
  Q 412.75 519.58 415.00 521.56
  L 415.00 522.89
  Q 414.88 522.97 414.70 523.00
  A 0.36 0.35 60.8 0 1 414.40 522.91
  Q 400.36 508.82 393.16 492.10
  Q 379.10 459.43 368.35 425.42
  C 364.15 412.15 359.93 396.11 359.02 381.53
  C 357.92 363.75 363.44 349.16 375.21 336.45
  C 378.19 333.24 381.96 330.13 383.89 326.35
  Q 385.46 323.28 386.64 319.73
  A 3.62 3.47 -35.7 0 0 386.82 318.75
  Q 386.96 312.65 388.74 307.05
  A 7.14 7.10 -43.2 0 0 388.87 303.22
  Q 387.80 298.83 384.93 292.84
  Q 372.10 266.10 353.12 244.73
  C 340.80 230.85 324.82 221.46 322.31 201.72
  C 321.83 197.94 322.69 193.62 322.94 189.43
  Q 323.09 186.81 323.63 184.59
  Q 328.42 164.98 348.61 162.11
  A 2.08 2.04 16.4 0 0 349.83 161.46
  Q 351.00 160.16 353.18 156.92
  Q 357.74 150.15 366.31 146.98
  Q 368.83 146.04 369.69 145.41
  C 372.88 143.06 375.65 141.32 379.67 140.30
  Q 381.98 139.71 384.29 138.37
  Q 393.47 133.04 404.18 135.99
  A 2.43 2.15 48.6 0 0 404.74 136.06
  L 415.00 135.82
  Z"
/>
<path fill="#75c9f8" d="
  M 415.00 159.22
  L 415.00 160.89
  Q 414.03 160.55 413.08 159.74
  A 1.60 1.57 -22.5 0 0 412.12 159.35
  C 409.95 159.23 407.58 160.63 406.03 162.20
  A 0.74 0.74 0.0 0 1 405.11 162.30
  Q 402.03 160.29 398.44 159.07
  C 395.13 157.95 394.02 162.08 394.03 164.25
  A 0.34 0.34 0.0 0 1 393.53 164.55
  C 391.01 163.21 385.79 161.67 384.17 164.67
  Q 382.14 168.45 378.50 168.73
  C 374.72 169.02 372.29 169.23 371.84 173.34
  Q 371.61 175.36 370.09 176.60
  A 1.83 1.83 0.0 0 1 369.27 176.99
  Q 367.39 177.37 366.99 178.29
  Q 366.43 179.56 366.08 182.03
  A 1.27 1.26 -84.5 0 1 364.77 183.12
  L 361.78 182.97
  A 2.19 2.18 -55.5 0 0 360.82 183.15
  Q 354.74 185.74 350.32 186.07
  A 3.48 3.47 2.8 0 0 347.15 188.94
  Q 346.10 194.89 346.09 198.76
  C 346.08 203.46 350.04 207.93 353.35 211.15
  C 359.50 217.14 368.17 225.48 374.94 233.53
  Q 393.79 255.90 407.10 283.89
  C 411.68 293.50 414.97 304.57 411.27 314.89
  A 6.16 5.65 59.9 0 0 410.97 316.26
  Q 410.28 323.91 409.85 325.38
  Q 406.89 335.56 401.49 343.07
  C 398.24 347.60 393.19 351.72 389.76 356.01
  Q 383.61 363.69 382.98 373.50
  Q 382.38 382.83 384.52 392.95
  Q 387.04 404.85 390.43 415.85
  Q 400.85 449.69 415.00 482.34
  L 415.00 484.48
  L 414.82 484.71
  A 0.26 0.26 0.0 0 1 414.37 484.65
  C 403.72 459.58 394.04 434.00 386.69 407.80
  Q 382.04 391.21 381.44 378.78
  Q 380.73 364.12 390.07 353.59
  C 392.81 350.50 396.45 347.28 398.84 344.31
  Q 405.67 335.84 408.79 324.13
  A 5.09 4.72 54.9 0 0 408.95 322.96
  Q 409.05 317.40 410.98 310.82
  C 412.83 304.54 410.54 295.15 407.65 288.61
  Q 393.82 257.24 371.95 232.10
  C 365.27 224.41 359.29 218.96 352.04 211.72
  C 349.01 208.69 345.12 204.29 344.91 200.03
  Q 344.69 195.58 345.55 189.82
  Q 346.01 186.72 348.35 185.23
  A 1.72 1.67 -65.8 0 1 348.93 185.00
  L 354.70 183.95
  A 5.20 5.16 -62.5 0 0 355.95 183.55
  Q 360.59 181.40 364.32 181.80
  A 0.63 0.62 2.5 0 0 365.01 181.17
  Q 364.92 176.43 368.67 175.79
  A 1.85 1.84 -88.0 0 0 370.13 174.42
  L 371.05 170.65
  A 1.28 1.27 -18.2 0 1 371.29 170.18
  C 373.55 167.49 376.23 167.54 380.03 166.97
  A 2.05 1.96 -67.1 0 0 380.89 166.60
  C 382.50 165.39 383.15 162.83 385.03 162.17
  Q 388.48 160.97 392.49 162.64
  A 0.35 0.34 -73.9 0 0 392.97 162.37
  Q 393.49 158.88 396.18 157.56
  A 1.70 1.69 -51.1 0 1 397.28 157.44
  Q 401.79 158.52 404.89 160.66
  A 0.92 0.91 -47.3 0 0 406.00 160.61
  Q 410.90 156.50 415.00 159.22
  Z"
/>
<path fill="#75c9f8" d="
  M 241.26 170.88
  Q 238.22 187.49 238.85 204.45
  L 238.99 205.71
  L 239.54 213.56
  L 238.85 213.70
  Q 236.80 192.15 240.54 170.65
  Q 240.98 170.68 241.26 170.88
  Z"
/>
<path fill="#6db0dd" fill-opacity="0.533" d="
  M 238.99 205.71
  L 238.85 204.45
  L 238.99 205.71
  Z"
/>
<path fill="#6db0dd" fill-opacity="0.533" d="
  M 239.54 213.56
  Q 241.13 222.33 241.79 225.02
  Q 247.28 247.25 258.72 264.27
  Q 260.51 266.93 266.09 274.57
  Q 266.12 274.71 265.64 275.02
  Q 243.30 248.31 238.85 213.70
  L 239.54 213.56
  Z"
/>
<path fill="#75c9f8" d="
  M 276.42 395.46
  Q 276.01 395.47 275.73 395.29
  C 271.97 364.49 277.81 332.42 293.61 305.65
  A 0.71 0.70 41.7 0 0 293.56 304.84
  Q 292.45 303.45 290.81 301.48
  Q 289.51 299.93 287.85 298.33
  Q 277.01 287.79 274.77 285.48
  Q 270.86 281.44 265.64 275.02
  Q 266.12 274.71 266.09 274.57
  Q 274.79 285.04 278.70 288.55
  Q 287.24 296.24 294.35 304.42
  A 1.09 1.09 0.0 0 1 294.47 305.68
  Q 283.65 324.33 278.81 346.03
  C 275.24 361.98 274.29 377.79 276.42 395.46
  Z"
/>
<path fill="#6db0dd" fill-opacity="0.533" d="
  M 276.42 395.46
  Q 278.42 409.72 279.34 413.94
  C 286.83 448.22 298.52 480.81 312.10 514.44
  Q 319.15 531.90 326.10 544.08
  A 0.71 0.69 -56.3 0 1 326.18 544.51
  Q 326.13 544.78 326.27 544.56
  Q 325.81 544.89 325.95 545.27
  Q 324.77 543.71 322.28 539.00
  C 319.30 533.39 316.51 527.98 314.03 522.03
  Q 305.96 502.68 299.05 484.00
  C 290.91 461.99 283.94 440.33 279.13 417.40
  Q 276.59 405.23 275.73 395.29
  Q 276.01 395.47 276.42 395.46
  Z"
/>
<path fill="#75c9f8" d="
  M 326.27 544.56
  Q 340.28 568.34 360.50 587.02
  Q 360.57 587.18 360.48 587.44
  Q 360.15 587.46 359.91 587.24
  Q 339.77 568.86 325.95 545.27
  Q 325.81 544.89 326.27 544.56
  Z"
/>
<path fill="#67a0c9" fill-opacity="0.278" d="
  M 348.20 759.50
  Q 347.16 758.55 345.76 756.51
  Q 338.66 746.16 333.97 737.14
  Q 328.54 726.71 321.40 708.97
  Q 305.56 669.59 311.08 627.27
  Q 312.98 612.71 317.75 596.95
  A 1.09 1.06 -55.5 0 0 317.58 595.97
  Q 313.51 590.59 308.34 584.08
  C 305.55 580.57 304.44 578.62 301.72 574.25
  A 0.09 0.08 -37.0 0 1 301.74 574.14
  Q 301.83 574.04 301.99 574.02
  A 0.27 0.27 0.0 0 1 302.22 574.12
  Q 310.58 586.10 318.97 595.68
  A 0.84 0.83 -57.3 0 1 319.14 596.48
  C 308.32 629.74 307.71 665.36 318.81 698.69
  Q 321.55 706.89 325.91 717.11
  C 332.32 732.13 338.79 745.52 347.63 757.88
  Q 348.27 758.78 348.20 759.50
  Z"
/>
<path fill="#6db0dd" fill-opacity="0.533" d="
  M 366.17 718.90
  Q 365.99 718.91 365.50 719.40
  Q 360.50 709.54 355.19 696.61
  Q 344.46 670.45 345.94 642.64
  Q 347.50 613.40 360.48 587.44
  Q 360.57 587.18 360.50 587.02
  Q 361.27 587.33 360.84 588.25
  C 351.85 607.85 346.38 629.47 346.76 650.57
  Q 347.14 671.49 354.75 691.78
  Q 359.91 705.52 366.17 718.90
  Z"
/>
<path fill="#75c9f8" d="
  M 415.00 612.24
  L 415.00 614.33
  Q 398.14 647.72 415.00 681.37
  L 415.00 683.48
  Q 411.67 677.91 409.27 670.73
  Q 400.97 645.87 410.92 620.81
  Q 413.17 615.12 415.00 612.24
  Z"
/>
<path fill="#75c9f8" d="
  M 366.17 718.90
  Q 378.00 743.13 398.78 760.30
  A 0.28 0.27 39.9 0 1 398.82 760.69
  L 398.75 760.77
  A 0.28 0.27 39.1 0 1 398.36 760.80
  Q 377.61 743.53 365.50 719.40
  Q 365.99 718.91 366.17 718.90
  Z"
/>
<path fill="#67a0c9" fill-opacity="0.278" d="
  M 348.20 759.50
  Q 348.97 759.52 349.44 760.21
  A 0.26 0.25 78.9 0 1 349.18 760.60
  Q 348.40 760.46 348.20 759.50
  Z"
/>
</svg>
