<svg width="362" height="84" viewBox="0 0 362 84" fill="none" xmlns="http://www.w3.org/2000/svg">
<path d="M13.9505 29.9702C13.4555 29.4302 12.9605 28.9352 12.4655 28.4402C11.8355 29.4302 11.1155 30.2852 10.4855 31.2302C10.3055 31.4552 10.0355 31.6802 9.85547 31.9052C9.72047 32.0852 9.09047 32.4902 9.00047 32.7602C8.91047 32.9402 8.95547 33.7502 8.32547 33.6152C8.10047 34.9652 6.79547 35.2802 6.61547 36.6302C6.48047 36.9452 6.16547 37.0352 5.76047 37.0802C5.71547 37.4402 5.85047 37.8902 5.53547 37.9352C5.58047 38.7002 4.77047 38.6102 4.45547 39.0152C4.54547 40.5902 3.33047 40.7702 3.15047 42.0302C2.79047 42.3902 2.52047 42.8402 2.29547 43.3352C1.75547 43.1552 1.12547 44.0102 0.765469 43.3352C0.315469 43.4252 0.360469 43.0202 0.360469 42.7052C0.000468694 40.9502 1.26047 39.0152 2.07047 37.7102C2.11547 37.0352 2.70047 36.9002 2.92547 36.4502C3.06047 35.8652 3.24047 35.4152 3.60047 35.1452C3.91547 34.0202 4.72547 33.1202 5.31047 32.1302C5.85047 31.1852 6.30047 30.1952 6.84047 29.0702C7.15547 28.4402 7.33547 27.6752 7.92047 27.1352C8.73047 25.2452 9.90047 23.6702 10.9355 21.9602C11.2955 21.6002 11.3405 20.9252 11.7905 20.6552C12.1955 19.6652 13.0055 19.1252 13.3205 18.0902C13.6805 17.7752 14.1755 17.6402 14.1755 17.0102C15.0305 16.4702 15.4805 15.5252 16.1105 14.8502C16.7405 14.7152 16.6505 13.9052 17.1905 13.7702C17.5055 13.3202 17.9105 13.0502 18.2705 12.6902C18.5855 12.3302 18.8555 11.9702 19.1255 11.6102C19.8455 11.6552 19.6205 10.7552 20.2055 10.7102C22.3205 8.77516 24.6605 7.11016 27.5855 5.98515C27.8555 5.89516 27.9005 5.58015 28.2155 5.53515H31.6805C32.2655 5.89516 32.8505 6.21015 33.6155 6.39015C34.2905 7.11016 34.7405 8.01015 35.5505 8.55016C35.6405 9.40516 35.8655 10.1252 36.2255 10.7102C36.4955 13.3202 35.5955 14.7602 35.5505 17.0102C34.9205 17.8652 34.4255 18.9002 34.2455 20.2502C33.5255 20.8802 33.1655 21.8702 32.7605 22.8152C31.5455 24.1652 30.1055 25.2002 29.0705 26.7302C28.0805 26.9102 27.4055 27.4952 26.6855 27.9902C26.2355 28.1252 26.1005 28.5302 25.4255 28.4402C25.0655 28.6652 24.9755 29.1602 24.3455 29.0702C22.0505 30.0602 19.5305 30.7802 16.1105 30.6002C16.1555 30.1502 15.3455 30.5102 15.0305 30.3752C15.0305 29.9252 14.4905 29.9252 13.9505 29.9702ZM13.7255 27.3602C14.8505 28.4852 17.1455 28.3952 19.3505 28.4402C21.2855 27.9002 23.0855 27.4952 24.7505 26.7302C26.3705 25.9652 27.6755 24.8402 29.0705 23.8952C30.6905 21.7802 32.5805 19.9352 33.1655 16.7852C33.8855 16.1552 33.9305 14.8952 34.2455 13.9502C34.4255 13.2302 34.0205 13.0502 33.8405 12.6902C34.6055 12.6452 34.2905 11.6552 34.2455 11.3852C34.2005 10.2152 32.9405 8.86515 32.5355 8.14516C31.8605 7.87515 31.0505 7.74016 30.6005 7.29015C29.5655 7.38016 29.1605 7.56016 28.2155 7.29015C27.9005 7.38016 27.6755 7.60515 27.5855 7.92015C26.7305 8.10015 26.2805 8.64015 25.6055 9.00016C24.7955 9.22516 24.3905 9.94515 23.4455 10.0802C21.2855 12.8702 17.9555 14.5352 16.1105 17.6402C15.1655 18.7652 14.1755 19.8452 13.7255 21.5102C12.8705 22.2302 12.1955 23.1752 11.5655 24.1202C10.9355 25.1552 10.5305 26.3252 9.63047 27.1352C9.72047 28.3052 9.04547 28.7102 8.77547 29.5202C9.49547 29.5202 9.36047 28.6652 9.85547 28.4402C10.1255 27.9902 10.4855 27.6302 10.9355 27.3602C11.3855 26.3702 12.1055 25.6502 12.4655 24.5702C12.8705 24.3902 13.2305 23.9852 13.5455 23.6702C13.9055 23.3552 14.4005 23.0852 14.6255 22.5902C15.1655 21.7352 16.1555 21.2852 16.5605 20.2502C17.4605 19.7552 17.5955 18.5402 18.7205 18.2702C19.3955 17.5502 19.8905 16.6052 21.1055 16.3352C21.2855 16.7402 21.8705 16.6952 21.9605 17.1902C21.8705 18.7202 20.8355 19.2152 20.0255 19.8002C19.6205 20.8802 18.5405 21.4202 17.8655 22.1852C17.1005 22.9502 16.6505 23.9852 15.7055 24.5702C15.6155 25.2452 15.0305 25.4702 14.6255 25.8302C14.6255 26.6402 13.5005 26.3252 13.7255 27.3602ZM43.6023 35.7302C43.0173 36.4052 41.0823 36.2702 40.5873 37.2152C40.4973 36.9002 39.1023 37.5752 39.0573 37.8452C37.9773 38.4302 36.5373 38.6552 35.3673 39.1502C35.1423 39.6452 34.7373 39.2402 34.2873 39.3752C34.1973 39.4202 33.7473 39.7802 33.6573 39.8252C32.5323 40.0052 31.3623 39.7802 30.4173 40.0052C30.2823 39.4202 29.5173 39.4652 29.5623 38.7452C29.3823 37.9352 29.5173 37.1702 29.6973 36.7652C30.1023 35.9102 31.2273 34.0652 31.9473 33.5252C33.3423 32.3552 34.9173 29.6102 36.4023 28.5302C36.5373 28.0352 37.0323 27.8552 37.4823 27.6752C37.5273 27.0452 38.1573 27.0452 38.3373 26.5952C38.7423 26.3252 39.0573 26.0102 39.4173 25.6952C39.8223 25.5152 39.6873 24.8402 40.4973 25.0652C41.3973 24.9752 41.0823 26.0552 41.5773 26.3702C41.3523 27.7202 40.0023 27.9452 39.6423 29.1602C38.5173 29.5652 38.2923 30.9152 37.4373 31.5452C36.3123 31.9952 35.2773 34.2002 34.2873 34.8302C33.7473 35.7752 32.5323 36.0902 32.3523 37.4402C33.2523 38.0252 34.6023 37.2602 35.1873 36.7652C36.8073 36.6302 38.0673 35.9102 39.2823 35.2802C40.4523 34.6502 41.5323 34.1552 42.7023 33.4802C43.6023 33.1202 43.6023 32.4902 44.3673 32.0402C45.3123 31.7702 46.2123 30.9602 47.3373 30.8702C47.8323 32.2652 47.0223 33.6152 44.9973 34.6502C44.6823 35.1002 43.9623 35.3252 43.6023 35.7302ZM47.4723 15.1652C47.4273 13.3202 47.4273 11.5202 49.6323 11.9252C50.0823 12.7802 50.2173 13.9502 50.3073 15.1652C49.7223 15.9302 48.1923 15.5252 47.4723 15.1652ZM69.523 33.3452C68.623 34.1102 66.913 35.0552 65.923 35.5052C65.158 35.7752 64.978 36.1352 63.763 36.6752C62.998 37.3502 62.593 37.1702 61.783 37.8002C60.118 38.9702 58.048 39.1052 56.293 40.1852C55.033 40.2302 53.368 40.7702 52.378 39.7352C52.333 38.6552 52.693 37.8002 53.053 37.1702C53.098 37.0802 52.963 36.7652 53.053 36.7202C53.278 36.5402 53.098 36.3602 53.278 36.0902C53.323 35.9552 53.593 36.0452 53.683 35.8652C53.908 35.5052 53.908 35.2802 54.133 35.0102C54.268 34.7852 54.583 34.6052 54.763 34.3352C54.808 34.2902 54.718 33.9752 54.763 33.9302C54.988 33.7502 55.033 33.7052 55.213 33.4802C55.663 32.8502 57.058 30.1952 57.598 29.2052C55.798 29.8352 51.883 32.7602 50.533 33.9752C50.128 34.3802 49.453 34.8302 49.183 35.3252C48.193 35.9552 47.878 37.1252 46.933 37.8002C46.213 37.8452 46.303 38.7452 45.628 38.8802C45.178 39.1952 44.818 39.6452 44.323 39.9602C43.198 39.8252 42.928 40.5452 42.343 39.7352C42.253 38.6552 42.838 38.2502 43.198 37.5752C43.783 37.1702 44.098 36.4502 44.503 35.8652C45.178 34.5602 47.023 32.0402 47.563 30.5102C47.743 29.7452 48.553 25.9652 48.778 25.4252C49.093 24.6602 49.588 24.7502 50.668 24.9302C51.433 25.6502 50.668 29.6102 50.128 30.5102C50.443 30.6452 50.128 30.7352 50.128 30.9602H49.903C50.038 31.5902 50.263 30.6452 50.578 30.7352C50.983 30.7352 50.713 30.1502 51.298 30.3302C51.523 29.7452 52.153 29.5652 52.378 29.0252C52.873 29.1602 53.053 28.8002 53.458 28.5752C54.043 28.2602 54.538 27.9902 55.168 27.4952C55.393 27.3602 55.618 27.0002 55.843 26.8652C56.878 26.1452 58.543 25.6052 59.533 24.7052C60.298 24.3452 62.143 23.4452 63.223 24.0302C63.853 25.4252 63.043 26.7752 62.143 27.2702C62.233 28.1252 61.243 27.9452 61.288 28.8002C60.658 28.8902 60.793 29.7452 60.208 29.8802C59.893 31.0952 58.318 33.3452 57.598 34.1102C57.328 34.6952 57.058 35.1902 56.698 35.6402C56.068 35.7302 56.293 36.6752 55.843 36.9452C56.203 37.5302 56.653 36.4502 57.148 36.4952C57.598 36.3152 58.318 36.6302 58.678 36.3152C59.263 36.2702 59.263 36.0452 59.758 35.9102C62.098 34.9202 62.818 35.1002 64.753 33.7052C65.698 33.3452 65.608 33.4352 66.373 32.8952C66.913 32.5352 67.183 32.2202 67.498 31.9052C67.858 31.7702 68.488 31.2302 68.803 31.0952C69.658 30.6452 70.333 29.9252 71.638 29.8802C71.863 31.9952 71.368 32.8502 70.693 32.8952C70.288 32.8952 69.568 33.1652 69.523 33.3452ZM97.7932 28.3052C97.8832 28.9352 97.1632 29.4302 97.4332 30.1052C96.0382 30.5552 95.0482 31.2752 93.6982 31.8152H93.5182C93.0682 31.8152 92.8882 32.1752 92.3932 32.0402C92.3032 32.4452 91.9882 32.3552 91.7182 32.6252C90.9982 32.8502 90.4132 32.7152 90.0082 33.3452C89.0632 33.8852 85.7332 35.3702 84.9232 35.9102C83.6632 36.4502 82.8982 36.4052 81.7282 37.1252C81.4582 37.7102 81.2782 38.1602 80.6482 38.6102C80.7832 38.7452 80.8732 38.8802 80.8732 39.0602C80.8732 39.5102 80.5582 39.8252 80.6482 40.3652C80.1982 40.3652 79.3882 42.3902 78.9382 42.9302C78.9382 43.5602 78.3532 44.7302 78.0832 45.3152C77.8132 45.4052 77.5882 45.6752 77.6332 45.9902C77.2282 47.5652 76.2382 48.9152 75.6982 50.4902V50.6702C75.6982 51.2102 74.9332 51.1202 75.0682 51.7952C74.5282 52.7402 74.2582 53.8202 73.5382 54.6302C73.5832 55.0352 70.6582 59.1302 70.2982 60.0302C69.6232 60.7052 69.0382 61.5152 68.5882 62.3702C67.5982 63.1802 66.2932 64.8452 65.1232 65.2052C64.8532 66.0152 61.7032 66.5552 60.9382 66.5552L60.3532 66.5102C60.2632 66.2402 60.0382 66.0602 59.7232 66.0602C58.9582 65.0702 58.9132 63.7202 58.4182 62.5952V62.4152C58.4182 61.6502 58.7332 61.0202 58.6432 60.2102C59.0932 59.4002 59.3632 58.5452 59.4982 57.6452C61.0282 55.2152 62.0632 52.4252 64.2682 50.4902C64.3132 49.8152 64.8982 49.5902 65.3482 49.2302C65.9782 47.9702 67.1482 47.1602 68.1382 46.1702C68.1382 45.8552 69.4882 44.5052 69.8482 44.4602C70.9282 42.7952 73.0882 41.3102 74.6182 40.0502L75.2482 39.8702C75.9232 39.3752 76.5982 38.9252 77.2282 38.3402L77.5882 37.8902L78.0832 37.1252C77.2282 37.1702 76.1482 37.4402 75.4732 37.9802C74.2582 37.9802 73.0432 38.4302 71.8282 38.4302C71.2882 38.4302 71.0182 38.0702 70.2982 38.2052C69.6682 37.7552 69.2182 37.0802 68.5882 36.6752V36.4952C68.5882 35.9552 68.3182 35.4602 68.3182 34.9202C68.3182 33.4352 69.1732 32.2202 69.6682 30.8702C70.6132 29.9702 71.5132 28.9352 72.2332 27.8102L77.8582 24.3902H78.4882C80.4682 23.4902 80.9182 23.0852 83.2582 23.0852C84.3832 23.0852 85.6882 23.1752 86.7232 23.7152C87.0832 24.4802 87.8932 24.8852 88.2082 25.6502V26.9552C88.2082 27.9902 86.8132 28.7102 86.0482 29.1152C85.7782 29.6102 85.6432 30.1502 85.4182 30.6452C84.9682 30.8252 84.7882 31.7252 84.7882 32.2202V32.4002L85.3282 32.6702C85.6432 32.6702 85.9132 32.9852 86.0032 32.6702C87.4432 32.0852 88.7032 31.4102 90.2332 31.0052C90.5032 30.7802 90.6382 30.7802 90.8632 30.5102C91.5382 30.3752 92.0332 30.1952 92.6182 29.9252C92.9332 29.3852 96.8932 28.1702 97.7032 28.1702C97.7482 28.1702 97.7932 28.2152 97.7932 28.3052ZM85.8682 26.7752C85.8682 25.6952 83.6182 25.2452 82.8082 25.2452C82.3132 25.2452 79.6132 25.9652 79.3882 26.3252C78.0832 26.1902 75.4732 28.3952 74.1682 28.8902C73.8532 29.6102 73.3132 30.1952 72.6832 30.6452C72.3232 31.4102 71.7832 32.0402 71.1532 32.5802C71.0632 33.3902 70.5232 34.1102 70.5232 34.9202C70.5232 35.2352 70.6582 35.5502 70.7482 35.8202C71.2432 36.0002 71.6482 36.2702 72.1882 36.2702C73.6282 36.2702 74.9782 35.2352 76.3282 35.3702C76.8232 34.9202 77.4082 34.6952 78.0832 34.7402C78.8932 33.7502 79.9732 33.1202 81.0982 32.5802C82.0432 30.6002 82.8532 28.3952 84.5632 26.9552C85.1032 26.8202 85.3282 26.8202 85.8682 26.9552V26.7752ZM77.9932 39.8702C77.2282 39.8702 69.0382 46.8452 68.7682 47.7002C67.9132 48.6902 67.0582 49.7252 65.9782 50.4902C65.1682 52.2002 62.8732 55.0352 61.6582 57.1952C61.1632 58.0502 61.2982 59.3552 60.5782 60.0302C60.6682 60.2102 60.7582 60.4352 60.7582 60.6152V63.4052C60.7582 63.8552 61.4782 63.4952 61.2082 64.1252C61.3432 64.2152 61.4782 64.2602 61.6582 64.2602C62.3332 64.2602 62.9632 63.9452 63.5932 63.6752L63.8182 63.2702C65.2132 62.3702 66.2032 61.2452 67.5082 60.2102C67.6882 59.5802 70.6132 55.3052 70.9282 55.2602C71.2882 55.0802 70.8832 54.1802 71.6032 54.4052C71.8732 53.2352 75.2482 46.7552 75.9232 45.7652C76.4632 44.8202 76.7782 44.0102 77.0032 43.2902C77.0482 42.1202 78.0832 41.2652 78.0832 40.0502C78.0832 39.9602 78.1282 39.8702 77.9932 39.8702ZM154.207 30.6002C154.837 31.0052 154.747 31.6352 154.882 32.2202C154.387 32.4902 150.562 35.8652 150.157 36.2252C148.897 37.0802 147.007 38.8802 145.027 39.6002C143.857 40.0502 143.452 40.9052 142.642 41.6702C141.472 42.0752 141.382 43.6052 140.257 44.0552C140.392 44.7752 140.032 45.0452 139.852 45.5852C139.807 45.6302 139.897 45.9452 139.852 45.9902C139.447 46.3952 139.267 47.2052 138.772 47.7452C138.682 48.2402 138.367 48.7802 138.097 49.2302C137.782 49.9052 137.377 50.4902 137.017 51.2102C136.747 51.7502 136.657 52.7402 135.937 53.1452C135.892 54.2252 135.037 54.4952 134.857 55.5302C134.362 55.6202 134.407 56.2952 134.227 56.6102C134.137 56.7452 133.912 56.8352 133.777 57.0152C133.597 57.3752 133.372 57.6452 133.147 58.0952C132.967 58.4102 132.787 59.4002 132.067 59.4002C131.887 60.3002 131.437 60.9302 130.987 61.5602C130.312 62.3702 129.862 63.3152 129.232 64.1702C128.962 64.5302 128.692 65.0702 128.377 65.4302C128.197 65.6552 127.927 65.6102 127.747 65.8802C127.612 66.1052 127.702 66.3302 127.522 66.5102C126.802 67.4552 126.262 68.5802 125.362 69.3452C123.832 72.2252 121.177 74.0702 119.737 77.1302C118.882 77.5802 118.387 78.3002 117.802 79.0652C117.127 79.5602 116.452 80.1452 116.092 81.0002C114.877 81.4502 114.067 82.3052 113.257 83.1602C111.997 82.9802 111.727 83.7452 110.467 83.6102C110.377 83.2952 109.927 83.4302 109.612 83.3852C109.612 82.9352 108.892 82.8452 108.712 82.5302C108.532 82.0802 108.532 81.2252 108.082 80.7752V77.5352C108.397 76.8602 108.262 76.3202 108.532 75.3752C108.667 74.8352 108.802 74.3852 108.937 73.8902C108.982 73.7552 109.252 73.3052 109.387 72.9902C109.522 72.5852 109.657 72.0452 109.792 71.7302C109.882 71.5952 110.197 71.5502 110.242 71.5052C110.377 71.2352 110.467 70.9652 110.692 70.6502C110.872 70.2902 111.322 68.8952 111.772 68.8952C111.952 68.5802 112.177 68.2652 112.402 67.8152C112.492 67.6802 112.492 67.3652 112.627 67.1852C113.077 66.5102 113.797 65.9252 114.337 65.2502C114.517 65.0252 114.652 64.7552 114.787 64.5752C115.102 64.2152 115.372 63.6302 115.867 63.0902C116.947 61.7402 118.432 60.7052 119.332 59.1752C120.322 58.3652 121.222 57.4652 122.122 56.6102C124.642 54.1352 127.432 51.5702 130.312 49.2302C130.537 48.7352 131.392 48.8702 131.392 48.1502C131.887 47.8802 132.247 47.5652 132.697 47.2952C133.102 46.3502 134.227 46.0802 134.632 45.1352C135.757 44.8202 136.387 44.0102 137.017 43.2002C138.232 43.0202 138.277 41.7152 139.402 41.4902C140.077 39.3752 141.157 37.7552 141.787 35.6402C142.822 33.9302 143.002 31.3652 143.947 29.6102C144.712 25.3802 146.377 20.4752 146.107 15.5702C145.972 13.4552 145.162 11.5652 145.027 9.49515C144.937 8.73015 144.307 8.50515 144.172 7.78516C144.442 7.20015 143.317 6.79515 143.272 6.25515C143.272 5.49016 142.147 5.08516 141.562 4.54515C141.337 3.69015 140.212 3.73515 139.852 3.01515C138.592 2.83515 137.782 2.52015 136.162 2.38515C133.912 2.16016 130.492 2.79016 128.377 3.69015C128.197 3.73515 127.792 3.73515 127.522 3.87015C127.252 4.00516 127.072 4.41016 126.892 4.54515C126.577 4.68015 126.307 4.59015 125.992 4.77015C125.317 5.08516 124.687 5.31015 124.057 5.85016C123.832 6.03015 123.697 6.48016 122.977 6.48016C122.122 7.20015 121.132 7.78516 120.187 8.41516C119.287 9.09015 118.477 9.90015 117.352 10.3502C116.317 11.4752 115.417 12.7352 114.337 13.8152C113.437 15.0302 112.717 16.3802 111.772 17.5052C111.412 19.0352 110.872 20.3402 110.467 21.8252C110.152 25.6052 111.097 28.0802 112.177 30.4652C112.582 31.0052 112.852 31.6802 113.482 31.9502C113.347 32.9402 114.652 32.5352 114.562 33.4802C115.822 33.7952 116.272 34.9202 117.577 35.1902C118.522 35.8652 119.827 36.1352 120.592 36.9452C121.222 36.8102 121.717 37.0352 122.347 37.1702C122.797 37.2152 123.382 37.2602 123.832 37.3502C123.967 37.3952 124.192 37.7552 124.282 37.8002C124.552 37.8902 124.867 37.7102 125.137 37.8002C125.542 37.8902 126.037 38.1602 126.442 38.2502C127.612 38.4302 129.097 38.3402 130.537 38.4302C131.167 38.5202 131.797 38.6102 132.472 38.6552C133.822 38.7452 134.497 38.8352 135.937 38.6552C136.297 38.0702 136.792 37.6202 137.467 37.3502C138.367 37.6652 138.907 38.3402 138.952 39.5102C138.862 40.3202 138.277 40.5452 137.467 40.5902C137.512 41.0852 136.702 40.7252 136.387 40.8152C136.252 41.1302 135.937 41.2202 135.532 41.2652C131.707 41.5802 129.277 40.5902 125.992 40.4102C124.147 39.9152 122.437 39.1502 120.592 38.6552C120.277 38.5652 119.872 38.5652 119.512 38.4302C119.467 38.4302 119.512 38.2502 119.332 38.2502C118.792 38.2052 118.432 37.6652 117.577 37.8002C116.722 36.9452 115.507 36.4052 114.337 35.8652C113.887 35.0102 112.987 34.6052 112.402 33.9302C111.817 33.2102 111.457 32.2652 110.692 31.7702C110.152 30.3752 109.747 28.9352 108.937 27.8552C108.847 25.9652 108.442 23.0402 108.712 20.9702C108.982 19.1252 109.747 17.7302 110.467 16.2002C110.557 15.8852 110.737 15.6152 110.872 15.3452C111.007 15.1202 111.142 14.7152 111.322 14.4902C111.457 14.3102 112.042 14.3552 111.772 13.8152C112.267 13.6802 112.402 13.1852 112.627 12.7352C113.257 12.1052 113.977 11.4752 114.337 10.5752C115.822 9.81016 116.677 8.46015 118.027 7.56016C118.837 7.20015 119.377 6.61515 120.187 6.25515C120.637 5.62515 121.627 5.53515 121.897 4.77015C122.797 4.63516 123.157 4.00516 124.057 3.87015C125.587 2.43015 127.972 1.89015 129.907 0.855153C131.887 0.585154 133.822 0.360154 135.712 0.000153482C138.277 0.225153 140.302 0.990154 142.192 1.93516C143.002 2.88015 143.857 3.78016 144.802 4.54515C144.847 5.04016 145.117 5.26516 145.432 5.62515C145.657 5.85016 145.837 6.75016 146.107 7.33516C146.197 7.56016 146.422 7.74016 146.512 8.01015C146.782 8.59516 146.872 9.49515 147.412 10.1702C147.412 11.6102 147.682 12.8702 148.042 14.0402C148.312 19.8452 147.502 24.6152 146.107 28.7102C145.657 30.9152 144.892 32.8502 144.352 35.0102C144.082 35.5502 143.587 35.9102 143.722 36.9452C144.352 37.3952 145.117 36.8102 145.522 36.4052C145.792 36.0452 146.017 36.0902 146.287 35.5952C146.422 35.3252 146.647 35.5952 146.827 35.2802C147.052 34.9652 148.177 34.5152 148.492 34.1552C148.717 33.8852 149.212 33.7502 149.437 33.5252C149.977 32.8952 150.697 32.8502 151.147 32.3552L154.207 30.6002ZM137.017 45.9902C136.342 46.8902 135.307 47.4752 134.452 48.1502C132.562 50.1752 130.312 51.7952 128.152 53.5502C127.387 54.4052 126.217 55.3052 125.587 55.9352C125.452 56.0702 125.317 56.0252 125.137 56.1602C124.822 56.4302 124.507 56.8352 124.282 57.2402C122.797 58.3202 121.627 59.7602 120.592 61.3352C119.467 61.6502 119.152 62.7752 118.252 63.2702C117.667 64.2152 117.037 65.0702 116.092 65.6552C115.957 66.4202 115.237 67.0502 115.012 67.4102C114.832 67.5902 114.967 67.9952 114.787 68.2652C114.517 68.5802 113.977 68.8052 113.707 69.1202C113.437 69.3902 112.897 70.3352 112.852 70.6502C112.762 70.8302 112.537 70.9202 112.402 71.0552C111.997 71.4602 111.772 72.2702 111.547 72.8102C111.097 73.6652 110.737 74.6552 110.242 75.6002C110.242 76.5902 109.972 77.5802 110.017 78.6152C110.107 79.6502 110.377 80.4602 110.692 81.2252C111.367 81.2252 111.637 81.1352 111.952 81.0002C112.042 80.9552 112.087 80.5952 112.177 80.5502C112.627 80.3252 113.077 80.3252 113.257 80.1452C114.112 79.3352 114.832 78.5702 115.642 77.7602C116.317 77.0402 116.902 76.3202 117.802 75.8252C118.432 74.0702 119.917 73.1702 120.592 71.5052C121.492 71.1902 121.762 70.3352 122.347 69.7502C122.932 69.1202 123.517 68.4902 124.057 67.8152C125.092 66.4652 125.947 64.9802 127.072 63.7202C127.342 62.8202 128.017 62.3252 128.377 61.5602C129.142 61.1102 129.232 59.9852 130.132 59.6252C130.582 58.3652 131.077 57.1052 132.067 56.3852C132.382 55.0352 133.237 53.8202 133.777 52.9202C134.092 52.4252 134.182 52.1102 134.452 51.6152C135.262 50.1302 136.207 48.6002 136.792 46.8902C136.792 46.5752 137.557 46.0802 137.017 45.9902ZM173.082 34.1102C173.757 33.5702 175.152 32.7602 175.287 32.6702C175.377 32.6252 176.052 34.6052 176.052 34.6052C176.052 34.6052 173.217 36.4952 173.082 36.4502C172.947 36.4052 170.112 38.6552 167.997 39.1052C167.457 39.1952 166.782 39.2402 166.242 39.5102C165.252 39.5102 164.217 39.0602 163.227 39.0602C162.552 38.7452 162.282 38.0252 161.922 37.3502C160.752 37.6652 159.852 38.2952 159.132 39.0602C157.512 39.4202 155.757 40.5002 153.957 40.8152C153.597 40.8602 153.192 40.7702 152.877 40.8152C152.292 40.8602 151.347 41.0402 150.492 40.5902C149.547 40.3202 149.502 39.1052 148.962 38.4302C149.232 37.6202 149.322 36.6302 149.637 35.8202C150.177 35.1452 154.002 29.1602 154.767 28.7102C154.677 28.0352 156.972 26.1452 157.062 25.6052C157.287 25.2902 157.242 24.6602 157.917 24.7502C158.907 24.5252 159.132 25.1102 159.627 25.4252C159.807 27.4952 158.502 28.1252 157.467 29.0702C157.332 29.8802 156.522 30.5102 156.027 30.9602C155.622 31.5002 153.597 34.6052 152.967 34.8752C152.697 36.2252 151.212 36.4952 151.572 38.4302C153.777 39.1952 155.532 37.7102 157.377 37.3502C158.367 36.6752 159.402 36.2252 160.437 35.6402C161.337 35.0552 162.147 34.2452 163.227 33.8852C164.082 32.2202 166.737 29.6102 168.042 28.2152C168.447 27.7652 168.672 27.1352 169.347 26.9102C169.347 26.2802 169.842 26.1452 170.202 25.8302C170.652 25.6052 171.012 25.2452 171.282 24.7502C171.507 24.6152 172.272 23.9402 172.587 24.5702C173.487 24.6602 173.307 26.2352 172.992 26.7302C172.902 26.8202 172.812 26.6852 172.767 26.9102C172.767 27.2702 172.587 27.4052 172.362 27.8102C171.282 29.0252 170.247 30.3302 169.122 31.4552C167.997 32.5802 165.117 34.8752 164.757 36.7202C165.522 37.1702 166.422 37.2602 167.097 37.1702C169.167 36.7652 171.552 35.2352 173.082 34.1102ZM199.206 33.3452C198.306 34.1102 196.596 35.0552 195.606 35.5052C194.841 35.7752 194.661 36.1352 193.446 36.6752C192.681 37.3502 192.276 37.1702 191.466 37.8002C189.801 38.9702 187.731 39.1052 185.976 40.1852C184.716 40.2302 183.051 40.7702 182.061 39.7352C182.016 38.6552 182.376 37.8002 182.736 37.1702C182.781 37.0802 182.646 36.7652 182.736 36.7202C182.961 36.5402 182.781 36.3602 182.961 36.0902C183.006 35.9552 183.276 36.0452 183.366 35.8652C183.591 35.5052 183.591 35.2802 183.816 35.0102C183.951 34.7852 184.266 34.6052 184.446 34.3352C184.491 34.2902 184.401 33.9752 184.446 33.9302C184.671 33.7502 184.716 33.7052 184.896 33.4802C185.346 32.8502 186.741 30.1952 187.281 29.2052C185.481 29.8352 181.566 32.7602 180.216 33.9752C179.811 34.3802 179.136 34.8302 178.866 35.3252C177.876 35.9552 177.561 37.1252 176.616 37.8002C175.896 37.8452 175.986 38.7452 175.311 38.8802C174.861 39.1952 174.501 39.6452 174.006 39.9602C172.881 39.8252 172.611 40.5452 172.026 39.7352C171.936 38.6552 172.521 38.2502 172.881 37.5752C173.466 37.1702 173.781 36.4502 174.186 35.8652C174.861 34.5602 176.706 32.0402 177.246 30.5102C177.426 29.7452 178.236 25.9652 178.461 25.4252C178.776 24.6602 179.271 24.7502 180.351 24.9302C181.116 25.6502 180.351 29.6102 179.811 30.5102C180.126 30.6452 179.811 30.7352 179.811 30.9602H179.586C179.721 31.5902 179.946 30.6452 180.261 30.7352C180.666 30.7352 180.396 30.1502 180.981 30.3302C181.206 29.7452 181.836 29.5652 182.061 29.0252C182.556 29.1602 182.736 28.8002 183.141 28.5752C183.726 28.2602 184.221 27.9902 184.851 27.4952C185.076 27.3602 185.301 27.0002 185.526 26.8652C186.561 26.1452 188.226 25.6052 189.216 24.7052C189.981 24.3452 191.826 23.4452 192.906 24.0302C193.536 25.4252 192.726 26.7752 191.826 27.2702C191.916 28.1252 190.926 27.9452 190.971 28.8002C190.341 28.8902 190.476 29.7452 189.891 29.8802C189.576 31.0952 188.001 33.3452 187.281 34.1102C187.011 34.6952 186.741 35.1902 186.381 35.6402C185.751 35.7302 185.976 36.6752 185.526 36.9452C185.886 37.5302 186.336 36.4502 186.831 36.4952C187.281 36.3152 188.001 36.6302 188.361 36.3152C188.946 36.2702 188.946 36.0452 189.441 35.9102C191.781 34.9202 192.501 35.1002 194.436 33.7052C195.381 33.3452 195.291 33.4352 196.056 32.8952C196.596 32.5352 196.866 32.2202 197.181 31.9052C197.541 31.7702 198.171 31.2302 198.486 31.0952C199.341 30.6452 200.016 29.9252 201.321 29.8802C201.546 31.9952 201.051 32.8502 200.376 32.8952C199.971 32.8952 199.251 33.1652 199.206 33.3452ZM210.331 35.7302C209.746 36.4052 207.811 36.2702 207.316 37.2152C207.226 36.9002 205.831 37.5752 205.786 37.8452C204.706 38.4302 203.266 38.6552 202.096 39.1502C201.871 39.6452 201.466 39.2402 201.016 39.3752C200.926 39.4202 200.476 39.7802 200.386 39.8252C199.261 40.0052 198.091 39.7802 197.146 40.0052C197.011 39.4202 196.246 39.4652 196.291 38.7452C196.111 37.9352 196.246 37.1702 196.426 36.7652C196.831 35.9102 197.956 34.0652 198.676 33.5252C200.071 32.3552 201.646 29.6102 203.131 28.5302C203.266 28.0352 203.761 27.8552 204.211 27.6752C204.256 27.0452 204.886 27.0452 205.066 26.5952C205.471 26.3252 205.786 26.0102 206.146 25.6952C206.551 25.5152 206.416 24.8402 207.226 25.0652C208.126 24.9752 207.811 26.0552 208.306 26.3702C208.081 27.7202 206.731 27.9452 206.371 29.1602C205.246 29.5652 205.021 30.9152 204.166 31.5452C203.041 31.9952 202.006 34.2002 201.016 34.8302C200.476 35.7752 199.261 36.0902 199.081 37.4402C199.981 38.0252 201.331 37.2602 201.916 36.7652C203.536 36.6302 204.796 35.9102 206.011 35.2802C207.181 34.6502 208.261 34.1552 209.431 33.4802C210.331 33.1202 210.331 32.4902 211.096 32.0402C212.041 31.7702 212.941 30.9602 214.066 30.8702C214.561 32.2652 213.751 33.6152 211.726 34.6502C211.411 35.1002 210.691 35.3252 210.331 35.7302ZM214.201 15.1652C214.156 13.3202 214.156 11.5202 216.361 11.9252C216.811 12.7802 216.946 13.9502 217.036 15.1652C216.451 15.9302 214.921 15.5252 214.201 15.1652ZM214.067 30.1502C214.247 29.6552 214.427 28.9352 214.517 28.3052C214.697 28.2152 215.102 27.7202 215.597 27.4502C216.902 27.2702 217.442 26.3252 218.612 25.9652C219.332 25.4252 219.737 24.6152 220.367 23.9852C221.582 23.8052 222.347 23.1302 223.787 23.1302C224.507 23.6702 226.037 24.2552 225.992 25.5152C226.352 26.2802 226.397 27.1352 226.532 27.8552C226.577 27.9452 226.802 28.0352 227.162 27.9452C227.792 27.8102 227.207 27.9902 227.837 27.7652C228.602 27.4502 229.682 27.6302 229.682 27.6752C229.727 28.0352 228.827 29.3852 228.602 29.5652C228.512 29.6102 228.332 29.6552 227.972 29.7902C227.252 30.0602 227.702 29.8352 227.027 30.1052C226.307 30.3752 226.217 30.4652 226.217 30.5102C225.677 32.2652 224.507 33.0752 223.607 34.3802C223.337 34.6502 222.212 35.2802 222.347 35.6852C221.807 35.7752 221.987 36.1802 221.447 36.7652C219.917 38.0252 218.207 39.1052 216.272 40.0052C214.742 40.3202 212.582 40.0952 211.502 39.7802C210.917 38.8352 211.052 37.1702 211.052 35.6852C211.277 35.1902 211.457 34.6052 211.727 34.1552C211.817 33.9752 212.267 33.8852 212.357 33.7052C212.537 33.4352 212.447 33.1202 212.582 32.8502C213.122 31.9052 213.302 30.8702 214.067 30.1502ZM222.527 25.9652C222.482 26.2352 222.212 26.2352 222.302 26.5952C222.032 27.1352 221.402 27.3152 220.772 27.4502C220.637 27.9002 219.557 28.5302 220.142 28.9802C220.187 28.6202 220.457 28.9802 220.367 29.3852C221.672 29.4752 223.472 29.2052 224.282 28.7552C224.192 27.9002 224.462 26.6852 224.057 26.1452C223.787 26.1452 222.842 25.8752 222.527 25.9652ZM217.127 30.2852C217.082 30.5552 216.812 30.5552 216.902 30.9152C216.362 30.9602 216.272 31.4552 216.047 31.7702C215.147 32.8952 214.517 34.2902 213.662 35.2352C213.662 36.1802 213.032 36.4952 213.212 37.6202H215.417C215.867 37.5752 217.442 36.6752 217.577 36.5402C217.757 36.3602 217.757 36.4502 218.027 36.3152C218.702 35.9102 219.107 35.1452 219.962 35.0102C220.367 34.5152 220.772 33.9752 221.267 33.5252C221.717 33.0302 222.167 32.5802 222.752 32.2202C223.067 31.6802 223.427 31.6802 223.427 30.9602C222.707 31.4102 221.267 31.5002 220.367 31.5452C220.052 31.2752 219.422 31.3652 218.837 31.3652C218.252 31.0052 217.847 30.4652 217.127 30.2852ZM247.49 33.8402C248.165 33.2552 249.785 32.2202 249.785 32.1752C249.785 32.1302 250.37 33.8852 250.37 33.8852C250.37 33.8852 248.795 35.5502 248.75 35.4602C246.41 36.9452 244.205 38.8802 241.19 39.5552C239.75 39.6902 238.13 39.4652 237.095 39.3302C236.645 39.2852 236.51 39.3302 236.015 39.1052C235.925 39.0602 236.015 38.9252 235.79 38.8802C235.205 38.8802 234.89 38.0702 234.485 37.5752C234.395 36.5852 234.8 36.0452 234.935 35.2352C236.15 33.7952 236.825 32.2202 238.175 30.9152C238.085 29.9702 237.905 28.6652 237.5 28.0802C236.195 28.3952 232.46 33.7502 231.2 34.1102C231.2 34.1102 229.58 32.9402 229.625 32.9852C230.3 32.4002 231.515 30.8252 232.1 30.3752C232.685 29.7002 234.89 26.6852 235.7 26.2802C235.745 25.7852 237.185 24.8852 237.545 24.5702C237.77 24.3002 237.59 23.4452 238.58 23.7602C239.615 24.0302 239.48 25.4252 239.66 26.5952C240.02 27.1352 240.155 27.9452 240.515 28.5302C240.335 29.5652 241.19 30.0152 241.19 30.9152C240.785 30.9152 240.875 31.5452 240.74 31.7702C240.56 32.0402 240.245 32.2202 240.11 32.4002C239.615 33.6602 238.85 34.1552 238.175 35.2352C237.95 35.8652 237.095 35.8652 237.32 36.9452C238.175 37.4402 239.525 37.5302 240.965 37.3952C243.485 37.1252 245.78 35.1002 247.49 33.8402ZM280.191 15.5702C281.316 15.5702 281.991 16.7402 282.486 17.5052V17.6852C282.486 18.2252 282.081 18.5402 282.261 19.0352C281.991 20.6552 280.821 21.3302 280.551 22.9052C279.381 23.9852 277.536 26.5952 277.536 26.8202C277.041 26.6402 276.366 28.4402 275.556 28.7552C274.656 30.5102 272.856 31.8152 271.686 32.8502C271.236 33.2552 270.966 33.8402 270.381 34.1552C269.526 35.0102 268.401 35.6402 267.591 36.5402C268.086 37.0352 269.121 36.3152 269.751 36.7202C273.666 36.2702 277.806 36.1802 281.181 35.4602C283.791 34.7402 287.391 34.4252 290.451 33.9302C291.891 33.7052 293.331 33.3902 294.771 33.3002C294.816 33.4352 294.816 33.5252 294.816 33.6152C294.816 34.3802 293.601 34.3352 293.061 34.5602C292.881 34.6502 292.881 34.9202 292.656 35.0102C291.621 35.3702 290.856 35.5052 290.046 36.0902C287.796 36.2702 285.501 36.9002 283.341 37.1702C282.531 37.2602 281.451 37.3502 280.776 37.8002C278.571 38.0252 276.411 38.2502 274.476 38.7002C272.496 38.7002 270.426 38.6552 269.076 39.3302H268.536C267.006 39.3302 265.296 39.6002 263.496 39.6002C262.776 39.6002 261.336 39.4652 261.336 38.7452C261.336 38.2952 262.056 37.1702 262.236 37.1702C263.091 37.1702 263.091 36.3602 263.901 36.3152C264.666 35.3702 265.881 34.8302 266.916 34.1552C267.411 33.6152 267.906 33.0752 268.446 32.6252C269.031 32.1752 269.616 32.3102 269.976 31.3202C270.696 30.9152 271.101 30.1952 271.686 29.6102C272.316 28.9802 273.261 28.4402 273.846 27.6752C273.981 27.4952 273.936 27.1802 274.071 27.0002C274.251 26.7752 274.701 26.6402 274.926 26.3702C275.196 26.0552 275.331 25.6052 275.556 25.2902C275.691 25.1102 276.861 23.9402 276.861 23.8952V23.8052C277.266 23.2652 277.536 22.5452 278.166 22.2752C278.391 20.9252 279.471 20.3852 279.471 18.8102C279.246 18.6752 279.021 18.6302 278.751 18.6302C276.951 18.6302 275.511 20.2952 273.621 20.9702C272.811 21.2402 271.461 22.7252 270.021 22.7252C268.986 22.7252 268.671 22.1852 268.221 21.4202C268.896 19.7552 270.831 19.3952 272.316 18.5852C273.666 17.6402 275.511 17.1902 276.861 16.2002C277.986 16.1552 279.201 15.5702 280.191 15.5702ZM297.191 18.2252C298.766 17.9102 299.711 16.9652 301.286 16.6952V16.6502C301.286 16.4702 301.601 16.4702 301.781 16.4702C302.231 16.4702 302.861 16.5602 303.446 16.6952C303.491 16.6952 303.536 16.8752 303.671 16.9202C304.616 17.1452 306.461 17.5502 307.361 18.0002C307.721 18.1802 307.856 18.6752 308.261 18.6752C308.306 18.6752 308.351 18.6752 308.441 18.6302C310.061 21.3752 312.536 21.6902 312.536 26.0102C312.131 28.7552 310.196 30.0152 309.071 32.0402C307.766 32.3552 307.496 33.7502 305.831 33.7502C305.111 34.7402 303.671 34.9202 303.041 35.9102C300.521 36.3602 298.271 38.1152 294.986 38.1152C294.311 38.1152 293.636 38.0252 292.961 38.0252C292.646 38.0252 292.331 38.0252 292.016 38.0702V38.0252C292.016 37.8902 291.881 37.8902 291.791 37.8452C290.126 37.6202 288.641 35.8202 287.921 34.4252C287.921 33.7052 287.651 33.5702 287.651 33.0302C287.651 31.9052 287.876 31.0052 287.921 29.8802C288.416 29.0252 288.776 28.0352 289.181 27.0902C289.946 26.5052 290.261 25.5152 290.711 24.7052C291.431 24.0752 291.791 23.1752 292.421 22.5452C292.961 21.7352 293.816 21.3302 294.176 20.3852C294.896 20.3402 295.211 19.6202 295.661 19.3052C296.201 18.9002 296.876 18.8102 297.191 18.2252ZM301.961 18.8552C300.926 18.9002 300.296 19.3052 299.126 19.3052C298.766 19.9802 297.956 20.0702 297.416 20.6102C296.741 21.2402 296.426 22.1402 295.661 22.7702C295.211 22.9952 294.581 23.0852 294.176 23.4002C293.861 24.1652 293.276 24.7052 292.871 25.3352C291.521 27.3602 290.171 29.2952 289.631 32.0402C289.946 35.1902 291.701 36.0002 294.491 36.0002C295.526 36.0002 296.786 35.8652 297.821 35.2802C301.916 34.7852 303.716 33.1202 306.281 31.5902C307.361 31.0502 307.901 29.9252 309.071 29.4302C309.341 28.3952 309.926 28.0352 310.151 27.7202C310.511 27.0902 310.556 26.3252 311.006 25.7852C310.826 24.5702 310.331 23.7152 309.926 22.7702C308.081 21.3302 306.911 19.2602 304.121 18.8552C303.356 19.3502 303.536 20.7452 302.366 20.7902C302.321 20.7002 302.321 20.6102 302.321 20.5202C302.321 20.1602 302.411 19.7552 302.411 19.3952C302.411 19.0352 302.321 18.8552 301.961 18.8552ZM331.08 15.5702C332.205 15.5702 332.88 16.7402 333.375 17.5052V17.6852C333.375 18.2252 332.97 18.5402 333.15 19.0352C332.88 20.6552 331.71 21.3302 331.44 22.9052C330.27 23.9852 328.425 26.5952 328.425 26.8202C327.93 26.6402 327.255 28.4402 326.445 28.7552C325.545 30.5102 323.745 31.8152 322.575 32.8502C322.125 33.2552 321.855 33.8402 321.27 34.1552C320.415 35.0102 319.29 35.6402 318.48 36.5402C318.975 37.0352 320.01 36.3152 320.64 36.7202C324.555 36.2702 328.695 36.1802 332.07 35.4602C334.68 34.7402 338.28 34.4252 341.34 33.9302C342.78 33.7052 344.22 33.3902 345.66 33.3002C345.705 33.4352 345.705 33.5252 345.705 33.6152C345.705 34.3802 344.49 34.3352 343.95 34.5602C343.77 34.6502 343.77 34.9202 343.545 35.0102C342.51 35.3702 341.745 35.5052 340.935 36.0902C338.685 36.2702 336.39 36.9002 334.23 37.1702C333.42 37.2602 332.34 37.3502 331.665 37.8002C329.46 38.0252 327.3 38.2502 325.365 38.7002C323.385 38.7002 321.315 38.6552 319.965 39.3302H319.425C317.895 39.3302 316.185 39.6002 314.385 39.6002C313.665 39.6002 312.225 39.4652 312.225 38.7452C312.225 38.2952 312.945 37.1702 313.125 37.1702C313.98 37.1702 313.98 36.3602 314.79 36.3152C315.555 35.3702 316.77 34.8302 317.805 34.1552C318.3 33.6152 318.795 33.0752 319.335 32.6252C319.92 32.1752 320.505 32.3102 320.865 31.3202C321.585 30.9152 321.99 30.1952 322.575 29.6102C323.205 28.9802 324.15 28.4402 324.735 27.6752C324.87 27.4952 324.825 27.1802 324.96 27.0002C325.14 26.7752 325.59 26.6402 325.815 26.3702C326.085 26.0552 326.22 25.6052 326.445 25.2902C326.58 25.1102 327.75 23.9402 327.75 23.8952V23.8052C328.155 23.2652 328.425 22.5452 329.055 22.2752C329.28 20.9252 330.36 20.3852 330.36 18.8102C330.135 18.6752 329.91 18.6302 329.64 18.6302C327.84 18.6302 326.4 20.2952 324.51 20.9702C323.7 21.2402 322.35 22.7252 320.91 22.7252C319.875 22.7252 319.56 22.1852 319.11 21.4202C319.785 19.7552 321.72 19.3952 323.205 18.5852C324.555 17.6402 326.4 17.1902 327.75 16.2002C328.875 16.1552 330.09 15.5702 331.08 15.5702ZM356.585 12.1952C357.125 12.1952 357.395 12.5102 357.8 12.6452C357.8 12.8252 357.845 12.9602 357.845 13.0952C357.845 14.2652 355.82 15.9302 355.73 15.9302C355.37 15.9302 355.19 15.7052 354.785 15.7052C353.705 16.3352 353.345 17.6852 351.95 18.0452V18.1802C351.95 18.7652 351.32 18.6752 351.32 19.2152V19.3502C350.33 20.2052 349.385 21.2852 348.71 22.3652C348.125 22.9952 347.855 23.9852 347.225 24.5252C346.955 25.5152 346.19 25.9652 345.695 26.6852C344.885 28.8452 343.805 30.6902 343.31 33.1652C343.31 34.5152 342.995 37.4852 344.03 37.4852C344.795 37.4852 345.83 35.0552 345.695 35.1452C345.83 34.9652 346.01 35.0552 346.145 34.9202C347.225 33.3902 348.755 32.4902 349.79 31.0052C350.915 30.6902 351.725 30.0602 352.625 29.5202C354.38 29.4302 355.955 28.2152 357.26 28.2152C359.285 28.2152 361.94 29.7002 361.94 32.4452C361.94 33.3902 361.625 34.2002 361.445 35.1452C360.77 35.9552 359.96 36.6302 359.285 37.4852C358.565 37.5302 358.475 38.2502 357.8 38.3402C357.035 39.1052 356.18 39.1052 355.415 39.4652C355.28 39.5102 354.875 39.8252 354.785 39.8702C354.245 40.0952 352.31 41.1302 347.945 41.1302C346.865 41.1302 345.785 41.0852 344.84 40.9502C343.58 41.7152 343.49 43.6502 342.68 44.8202C341.69 44.7302 341.375 44.2352 341.375 43.5602C341.375 42.4802 342.32 40.9052 342.455 40.0952C342.455 39.0602 341.645 38.9252 341.375 38.1602C341.375 37.1252 340.88 36.8102 340.88 35.8202C340.88 31.5902 342.41 28.9352 343.535 25.8302C343.985 25.5602 344.12 24.9752 344.615 24.7502V24.5702C344.615 23.9402 345.11 23.7602 345.47 23.4452C345.65 22.2752 346.685 21.9152 346.775 20.6552C347.765 20.1602 348.89 18.6752 349.16 18.0452C349.88 17.4602 350.42 16.7402 351.095 16.1102C351.77 15.4802 352.535 14.9402 353.03 14.1752C354.29 13.8152 355.505 12.1952 356.585 12.1952ZM353.885 37.7102C355.37 37.3052 357.755 36.0002 358.655 34.9202C358.655 34.9202 358.7 34.8752 358.745 34.8752C358.835 34.8752 358.97 34.9202 359.06 34.9202C359.285 34.9202 359.96 33.1652 359.96 32.8502C359.96 32.4902 359.825 32.2202 359.51 31.8602V31.8152C359.51 31.4102 358.835 31.6352 358.835 31.1852C358.835 31.1402 358.88 31.0952 358.88 31.0052C358.16 30.8702 357.35 30.7802 356.45 30.7802C355.28 30.7802 352.94 31.9052 352.625 32.0852C352.31 32.3102 352.04 32.7602 351.725 32.9402C351.005 33.4802 349.925 34.1102 349.565 34.6952C349.205 35.2802 348.485 35.3702 348.305 36.0002C347.63 36.9002 346.595 37.3052 346.55 38.5652C348.575 38.6552 350.06 38.6102 351.545 38.7902C352.04 38.1602 353.345 38.2952 353.885 37.7102Z" fill="#629CEF"/>
</svg>
